<svg viewBox="0 0 100 100" xmlns="http://www.w3.org/2000/svg" xmlns:xlink="http://www.w3.org/1999/xlink" width="100.000000" height="100.000000" fill="none">
	<rect id="assignment_7959593 1" width="100.000000" height="100.000000" x="0.000000" y="0.000000" fill="rgb(255,255,255)" fill-opacity="0" />
	<path id="Vector" d="M85.4166 31.25L85.4166 85.4167C85.4166 87.6268 84.5386 89.7464 82.9758 91.3092C81.413 92.8721 79.2934 93.75 77.0833 93.75L22.9166 93.75C20.7064 93.75 18.5868 92.8721 17.024 91.3092C15.4612 89.7464 14.5833 87.6268 14.5833 85.4167L14.5833 14.5834C14.5833 12.3732 15.4612 10.2536 17.024 8.6908C18.5868 7.12799 20.7064 6.25002 22.9166 6.25002L63.5624 6.25002C63.9045 6.2467 64.2462 6.27459 64.5833 6.33335C65.6423 6.45136 66.6677 6.77707 67.6008 7.29185C68.5338 7.80663 69.3562 8.50037 70.0208 9.33335L83.5624 26C84.7529 27.4919 85.4061 29.3414 85.4166 31.25Z" fill="rgb(125,168,255)" fill-rule="nonzero" />
	<path id="Vector" d="M85.4166 31.2499L70.8333 31.2499C69.1772 31.245 67.5903 30.5849 66.4193 29.4139C65.2483 28.2428 64.5882 26.656 64.5833 24.9999L64.5833 6.33325C65.6423 6.45126 66.6677 6.77697 67.6008 7.29175C68.5338 7.80653 69.3562 8.50027 70.0208 9.33325L83.5624 25.9999C84.7529 27.4918 85.4061 29.3413 85.4166 31.2499Z" fill="rgb(166,197,250)" fill-rule="nonzero" />
	<g id="Group">
		<path id="Vector" d="M52.0833 37.4999L29.1666 37.4999C28.6141 37.4999 28.0841 37.2804 27.6934 36.8897C27.3027 36.499 27.0833 35.9691 27.0833 35.4166C27.0833 34.8641 27.3027 34.3341 27.6934 33.9434C28.0841 33.5527 28.6141 33.3333 29.1666 33.3333L52.0833 33.3333C52.6358 33.3333 53.1657 33.5527 53.5564 33.9434C53.9471 34.3341 54.1666 34.8641 54.1666 35.4166C54.1666 35.9691 53.9471 36.499 53.5564 36.8897C53.1657 37.2804 52.6358 37.4999 52.0833 37.4999Z" fill="rgb(249,245,245)" fill-rule="nonzero" />
		<path id="Vector" d="M52.0833 27.0834L29.1666 27.0834C28.6141 27.0834 28.0841 26.8639 27.6934 26.4732C27.3027 26.0825 27.0833 25.5526 27.0833 25.0001C27.0833 24.4475 27.3027 23.9176 27.6934 23.5269C28.0841 23.1362 28.6141 22.9167 29.1666 22.9167L52.0833 22.9167C52.6358 22.9167 53.1657 23.1362 53.5564 23.5269C53.9471 23.9176 54.1666 24.4475 54.1666 25.0001C54.1666 25.5526 53.9471 26.0825 53.5564 26.4732C53.1657 26.8639 52.6358 27.0834 52.0833 27.0834Z" fill="rgb(249,245,245)" fill-rule="nonzero" />
		<path id="Vector" d="M70.8333 47.9167L29.1666 47.9167C28.6141 47.9167 28.0841 47.6972 27.6934 47.3065C27.3027 46.9158 27.0833 46.3859 27.0833 45.8333C27.0833 45.2808 27.3027 44.7509 27.6934 44.3602C28.0841 43.9695 28.6141 43.75 29.1666 43.75L70.8333 43.75C71.3858 43.75 71.9157 43.9695 72.3064 44.3602C72.6971 44.7509 72.9166 45.2808 72.9166 45.8333C72.9166 46.3859 72.6971 46.9158 72.3064 47.3065C71.9157 47.6972 71.3858 47.9167 70.8333 47.9167Z" fill="rgb(249,245,245)" fill-rule="nonzero" />
		<path id="Vector" d="M70.8333 58.3334L29.1666 58.3334C28.6141 58.3334 28.0841 58.1139 27.6934 57.7232C27.3027 57.3325 27.0833 56.8026 27.0833 56.2501C27.0833 55.6975 27.3027 55.1676 27.6934 54.7769C28.0841 54.3862 28.6141 54.1667 29.1666 54.1667L70.8333 54.1667C71.3858 54.1667 71.9157 54.3862 72.3064 54.7769C72.6971 55.1676 72.9166 55.6975 72.9166 56.2501C72.9166 56.8026 72.6971 57.3325 72.3064 57.7232C71.9157 58.1139 71.3858 58.3334 70.8333 58.3334Z" fill="rgb(249,245,245)" fill-rule="nonzero" />
		<path id="Vector" d="M70.8333 68.7499L29.1666 68.7499C28.6141 68.7499 28.0841 68.5304 27.6934 68.1397C27.3027 67.749 27.0833 67.2191 27.0833 66.6666C27.0833 66.1141 27.3027 65.5841 27.6934 65.1934C28.0841 64.8027 28.6141 64.5833 29.1666 64.5833L70.8333 64.5833C71.3858 64.5833 71.9157 64.8027 72.3064 65.1934C72.6971 65.5841 72.9166 66.1141 72.9166 66.6666C72.9166 67.2191 72.6971 67.749 72.3064 68.1397C71.9157 68.5304 71.3858 68.7499 70.8333 68.7499Z" fill="rgb(249,245,245)" fill-rule="nonzero" />
		<path id="Vector" d="M70.8333 81.2499L54.1666 81.2499C53.6141 81.2499 53.0841 81.0304 52.6934 80.6397C52.3027 80.249 52.0833 79.7191 52.0833 79.1666C52.0833 78.6141 52.3027 78.0841 52.6934 77.6934C53.0841 77.3027 53.6141 77.0833 54.1666 77.0833L70.8333 77.0833C71.3858 77.0833 71.9157 77.3027 72.3064 77.6934C72.6971 78.0841 72.9166 78.6141 72.9166 79.1666C72.9166 79.7191 72.6971 80.249 72.3064 80.6397C71.9157 81.0304 71.3858 81.2499 70.8333 81.2499Z" fill="rgb(249,245,245)" fill-rule="nonzero" />
	</g>
</svg>
